<svg width="2052" height="288" viewBox="0 0 2052 288" fill="none" xmlns="http://www.w3.org/2000/svg">
<path d="M2051.08 287.999H1890.56V263.198H2051.08V287.999ZM1761.29 70.9951C1775.3 70.9951 1787.35 73.6365 1797.46 78.918C1807.79 83.9699 1816.17 90.2844 1822.6 97.8623C1829.26 105.44 1834.08 113.707 1837.07 122.663C1840.28 131.619 1841.89 139.885 1841.89 147.463V169.508H1704.11C1704.8 186.501 1710.08 200.165 1719.95 210.498C1729.83 220.831 1743.61 225.998 1761.29 225.998C1769.33 225.998 1776.33 225.079 1782.3 223.242C1788.27 221.405 1793.32 218.879 1797.46 215.664C1801.82 212.449 1805.26 208.775 1807.79 204.642C1810.54 200.279 1812.73 195.686 1814.33 190.864L1839.82 197.753C1835 213.598 1826.04 226.572 1812.96 236.676C1800.1 246.55 1782.64 251.487 1760.6 251.487C1748.43 251.487 1737.18 249.42 1726.84 245.287C1716.74 240.924 1708.01 234.839 1700.67 227.031C1693.32 219.224 1687.58 209.924 1683.44 199.131C1679.31 188.338 1677.24 176.397 1677.24 163.308V155.041C1677.24 143.1 1679.31 131.963 1683.44 121.63C1687.81 111.297 1693.78 102.456 1701.35 95.1074C1708.93 87.5295 1717.77 81.6734 1727.88 77.54C1738.21 73.1771 1749.35 70.9951 1761.29 70.9951ZM492.396 234.265H496.529L559.563 5.5498H590.563L522.363 246.665H466.562L398.361 5.5498H429.361L492.396 234.265ZM720.87 221.864H776.672V246.665H634.069V221.864H694.004V100.618H640.27V75.8184H720.87V221.864ZM915.59 75.8174H981.724V100.618H915.59V211.531C915.59 218.42 918.69 221.864 924.89 221.864H973.457V246.665H915.245C907.438 246.665 901.008 244.139 895.956 239.087C891.134 234.035 888.723 227.605 888.723 219.798V100.618H834.988V75.8174H888.723V5.5498H915.59V75.8174ZM1154.4 70.9951C1171.62 70.9951 1185.51 76.622 1196.08 87.874C1206.64 99.126 1212.27 115.545 1212.95 137.13L1184.71 141.264C1184.71 125.419 1180.92 114.052 1173.34 107.163C1165.76 100.045 1156.46 96.4844 1145.44 96.4844C1138.32 96.4844 1132.12 97.8626 1126.84 100.618C1121.79 103.374 1117.54 107.163 1114.1 111.985C1110.65 116.808 1108.13 122.434 1106.52 128.863C1104.91 135.293 1104.11 142.182 1104.11 149.53V221.864H1147.51V246.665H1037.97V221.864H1077.24V100.618H1042.11V75.8174H1104.11V98.5518H1108.24C1112.61 89.1369 1118.8 82.2478 1126.84 77.8848C1134.88 73.2922 1144.06 70.9952 1154.4 70.9951ZM1353.59 221.864H1409.4V246.665H1266.79V221.864H1326.73V100.618H1272.99V75.8184H1353.59V221.864ZM1559.68 70.9951C1579.43 70.9952 1595.16 77.1956 1606.87 89.5957C1618.58 101.766 1624.44 120.137 1624.44 144.708V246.665H1597.57V150.219C1597.57 132.307 1593.55 118.874 1585.51 109.918C1577.48 100.963 1566.57 96.4844 1552.79 96.4844C1536.49 96.4845 1523.63 102.111 1514.21 113.363C1505.03 124.386 1500.43 139.197 1500.43 157.797V246.665H1473.57V75.8174H1500.43V104.752H1504.57C1515.13 82.2479 1533.5 70.9951 1559.68 70.9951ZM144.637 99.9297V152.286L0.65625 201.887V172.953L134.303 128.174V124.041L0.65625 79.2627V50.3291L144.637 99.9297ZM1761.29 96.4844C1753.71 96.4844 1746.59 97.7476 1739.93 100.273C1733.5 102.57 1727.76 105.9 1722.71 110.263C1717.89 114.626 1713.87 119.792 1710.65 125.763C1707.67 131.504 1705.72 137.819 1704.8 144.708H1815.02C1814.56 137.36 1812.73 130.7 1809.51 124.729C1806.53 118.759 1802.51 113.708 1797.46 109.574C1792.63 105.441 1787.01 102.226 1780.58 99.9297C1774.38 97.6334 1767.95 96.4844 1761.29 96.4844ZM707.093 0.727539C713.752 0.727578 719.378 3.13879 723.971 7.96094C728.793 12.5535 731.204 18.1797 731.204 24.8389C731.204 31.4981 728.793 37.2393 723.971 42.0615C719.378 46.6542 713.752 48.9511 707.093 48.9512C700.433 48.9512 694.692 46.6542 689.87 42.0615C685.278 37.2393 682.981 31.4982 682.981 24.8389C682.982 18.1797 685.278 12.5535 689.87 7.96094C694.692 3.13877 700.434 0.727539 707.093 0.727539ZM1339.82 0.727539C1346.48 0.727539 1352.1 3.13888 1356.69 7.96094C1361.52 12.5535 1363.93 18.1797 1363.93 24.8389C1363.93 31.4982 1361.52 37.2392 1356.69 42.0615C1352.1 46.6542 1346.48 48.9512 1339.82 48.9512C1333.16 48.9511 1327.42 46.6542 1322.59 42.0615C1318 37.2393 1315.71 31.4981 1315.71 24.8389C1315.71 18.1797 1318 12.5535 1322.59 7.96094C1327.42 3.13869 1333.16 0.727577 1339.82 0.727539Z" fill="url(#paint0_linear_1_17)"/>
<defs>
<linearGradient id="paint0_linear_1_17" x1="0.654498" y1="126.11" x2="2141.58" y2="146.203" gradientUnits="userSpaceOnUse">
<stop stop-color="#00BFA6"/>
<stop offset="0.5" stop-color="#3CCFCF"/>
<stop offset="1" stop-color="#00EAFF"/>
</linearGradient>
</defs>
</svg>
